<?xml version="1.0" standalone="no"?><svg xmlns="http://www.w3.org/2000/svg" viewBox="0 0 1440 320"><path fill="#e7008a" fill-opacity="0.05" d="M0,32L34.3,80C68.6,128,137,224,206,266.7C274.3,309,343,299,411,293.3C480,288,549,288,617,277.3C685.7,267,754,245,823,213.3C891.4,181,960,139,1029,149.3C1097.1,160,1166,224,1234,224C1302.9,224,1371,160,1406,128L1440,96L1440,320L1405.7,320C1371.4,320,1303,320,1234,320C1165.7,320,1097,320,1029,320C960,320,891,320,823,320C754.3,320,686,320,617,320C548.6,320,480,320,411,320C342.9,320,274,320,206,320C137.1,320,69,320,34,320L0,320Z"></path></svg>