<?xml version="1.0" standalone="no"?><svg xmlns="http://www.w3.org/2000/svg" viewBox="0 0 1440 320"><path fill="#cdb4db" fill-opacity="1" d="M0,256L18.5,250.7C36.9,245,74,235,111,218.7C147.7,203,185,181,222,154.7C258.5,128,295,96,332,117.3C369.2,139,406,213,443,234.7C480,256,517,224,554,197.3C590.8,171,628,149,665,149.3C701.5,149,738,171,775,192C812.3,213,849,235,886,229.3C923.1,224,960,192,997,149.3C1033.8,107,1071,53,1108,32C1144.6,11,1182,21,1218,53.3C1255.4,85,1292,139,1329,144C1366.2,149,1403,107,1422,85.3L1440,64L1440,320L1421.5,320C1403.1,320,1366,320,1329,320C1292.3,320,1255,320,1218,320C1181.5,320,1145,320,1108,320C1070.8,320,1034,320,997,320C960,320,923,320,886,320C849.2,320,812,320,775,320C738.5,320,702,320,665,320C627.7,320,591,320,554,320C516.9,320,480,320,443,320C406.2,320,369,320,332,320C295.4,320,258,320,222,320C184.6,320,148,320,111,320C73.8,320,37,320,18,320L0,320Z"></path></svg>