<?xml version="1.0" standalone="no"?><svg xmlns="http://www.w3.org/2000/svg" viewBox="0 0 1440 320"><path fill="#a2d9ff" fill-opacity="0.5" d="M0,160L34.3,138.7C68.6,117,137,75,206,96C274.3,117,343,203,411,229.3C480,256,549,224,617,181.3C685.7,139,754,85,823,90.7C891.4,96,960,160,1029,154.7C1097.1,149,1166,75,1234,69.3C1302.9,64,1371,128,1406,160L1440,192L1440,0L1405.7,0C1371.4,0,1303,0,1234,0C1165.7,0,1097,0,1029,0C960,0,891,0,823,0C754.3,0,686,0,617,0C548.6,0,480,0,411,0C342.9,0,274,0,206,0C137.1,0,69,0,34,0L0,0Z"></path></svg>