<?xml version="1.0" standalone="no"?><svg xmlns="http://www.w3.org/2000/svg" viewBox="0 0 1440 320"><path fill="#cdb4db" fill-opacity="0.5" d="M0,64L21.8,101.3C43.6,139,87,213,131,250.7C174.5,288,218,288,262,256C305.5,224,349,160,393,144C436.4,128,480,160,524,160C567.3,160,611,128,655,106.7C698.2,85,742,75,785,106.7C829.1,139,873,213,916,245.3C960,277,1004,267,1047,261.3C1090.9,256,1135,256,1178,261.3C1221.8,267,1265,277,1309,261.3C1352.7,245,1396,203,1418,181.3L1440,160L1440,320L1418.2,320C1396.4,320,1353,320,1309,320C1265.5,320,1222,320,1178,320C1134.5,320,1091,320,1047,320C1003.6,320,960,320,916,320C872.7,320,829,320,785,320C741.8,320,698,320,655,320C610.9,320,567,320,524,320C480,320,436,320,393,320C349.1,320,305,320,262,320C218.2,320,175,320,131,320C87.3,320,44,320,22,320L0,320Z"></path></svg>